<?xml version="1.0" standalone="no"?>
<!DOCTYPE svg PUBLIC "-//W3C//DTD SVG 20010904//EN"
 "http://www.w3.org/TR/2001/REC-SVG-20010904/DTD/svg10.dtd">
<svg version="1.0" xmlns="http://www.w3.org/2000/svg"
 width="1280.000000pt" height="1035.000000pt" viewBox="0 0 1280.000000 1035.000000"
 preserveAspectRatio="xMidYMid meet">
<metadata>
Created by potrace 1.15, written by Peter Selinger 2001-2017
</metadata>
<g transform="translate(0.000000,1035.000000) scale(0.100000,-0.100000)"
fill="#000000" stroke="none">
<path d="M0 8271 l0 -2078 130 -66 c90 -45 156 -72 213 -84 72 -16 87 -23 122
-59 42 -43 46 -51 144 -254 38 -80 80 -149 117 -193 31 -37 54 -70 52 -72 -2
-3 -47 11 -99 29 -129 46 -216 60 -340 54 -94 -4 -116 -9 -219 -50 l-115 -45
-3 -1819 c-3 -1688 10 -3489 26 -3593 l7 -43 60 44 c53 40 213 172 475 394
115 97 302 233 415 300 51 30 158 83 238 118 175 76 293 142 385 214 82 66
158 111 237 141 162 62 218 102 287 205 23 33 75 93 115 133 86 83 86 79 13
178 -55 75 -65 105 -55 176 7 49 6 51 -16 48 -38 -5 -49 8 -49 59 1 77 81 237
129 257 18 7 56 -28 88 -82 28 -49 89 -106 106 -100 7 2 11 20 9 41 -4 44 0
44 104 10 50 -16 92 -24 114 -21 19 3 67 10 105 15 39 6 187 16 330 22 690 28
781 40 989 132 157 69 296 160 296 194 0 7 -11 16 -25 19 -14 3 -36 7 -50 10
-33 7 -143 111 -204 193 -27 37 -90 134 -141 216 -109 178 -153 239 -235 327
-155 169 -277 529 -217 639 10 19 34 43 53 52 64 33 141 20 351 -58 66 -24
143 -48 172 -52 50 -7 52 -9 98 -77 59 -89 170 -310 197 -395 49 -151 68 -318
107 -900 26 -405 26 -471 -2 -650 -27 -171 -76 -330 -103 -330 -20 0 -62 45
-106 111 -25 39 -86 109 -134 157 -61 60 -96 105 -115 145 -14 31 -29 57 -33
57 -11 0 7 -193 26 -281 47 -210 136 -468 225 -654 56 -116 84 -152 112 -141
14 5 16 1 11 -26 -2 -18 2 -55 10 -83 33 -114 205 -400 280 -466 45 -39 65
-36 188 26 139 70 266 167 424 322 80 78 157 147 173 154 25 10 35 8 76 -14
52 -28 139 -47 218 -47 156 0 472 -99 652 -204 75 -45 143 -112 172 -170 11
-25 30 -89 41 -142 11 -54 27 -109 36 -123 14 -22 17 -23 28 -8 7 9 15 53 18
97 3 51 12 94 25 118 10 20 26 51 35 68 9 16 21 75 28 130 14 131 34 197 70
236 29 32 30 35 23 106 -8 91 10 146 67 196 47 43 76 45 175 15 90 -27 168
-72 202 -116 37 -47 71 -63 138 -63 79 0 167 25 253 72 73 41 99 44 181 26 12
-2 14 7 12 45 -4 62 15 92 74 117 66 29 59 42 -43 79 -34 13 -69 31 -77 40
-14 16 -12 21 30 62 76 73 95 123 120 316 19 153 30 190 54 198 11 4 27 27 38
58 43 114 59 296 72 796 9 359 22 579 36 616 10 25 73 18 143 -16 125 -58 266
-182 312 -270 36 -72 68 -207 79 -336 16 -185 34 -231 113 -277 57 -34 133
-52 327 -80 127 -19 199 -36 316 -74 226 -74 480 -202 498 -249 12 -32 -28
-57 -97 -61 -78 -5 -124 14 -132 56 -16 78 -88 133 -176 136 l-53 1 -13 -44
c-7 -24 -17 -125 -23 -225 -12 -224 -37 -372 -86 -507 -23 -65 -64 -267 -64
-319 -1 -122 -48 -250 -145 -391 -80 -116 -105 -176 -121 -297 -14 -98 -36
-173 -83 -289 l-21 -53 732 0 731 0 -6 222 c-6 228 -17 311 -56 419 -11 31
-25 86 -31 122 -13 81 -28 367 -29 542 -1 186 -16 245 -61 245 -33 0 -52 43
-52 116 1 86 17 112 74 116 42 3 43 4 43 38 0 28 -6 38 -32 55 -18 11 -31 25
-29 30 5 17 106 17 180 0 84 -18 145 -50 165 -87 14 -24 13 -32 -12 -95 -40
-100 -49 -183 -49 -428 1 -229 18 -465 52 -695 29 -195 98 -581 105 -589 4 -3
53 -8 109 -9 153 -5 155 -1 111 249 -61 344 -75 434 -94 609 -11 102 -26 295
-32 430 -6 135 -14 263 -18 285 l-8 40 -18 -43 c-23 -57 -50 -71 -79 -43 -18
18 -22 36 -24 109 -3 76 -1 90 15 105 19 16 23 16 98 -3 43 -11 95 -20 116
-20 82 0 133 -39 184 -141 69 -136 195 -205 715 -391 448 -160 663 -264 890
-431 l105 -78 3 1691 2 1691 -106 156 c-114 169 -151 236 -183 331 -34 99 -25
182 19 182 29 0 60 36 60 69 0 39 41 86 99 114 26 12 51 33 58 48 47 99 56
578 50 2909 -5 2008 -8 2216 -42 2296 -17 40 -22 41 -61 12 -48 -36 -107 -109
-170 -210 -71 -117 -135 -193 -194 -230 -41 -27 -52 -29 -117 -26 -110 5 -164
58 -114 112 30 32 51 99 67 219 8 59 23 133 34 165 12 31 23 64 26 74 4 10 -1
18 -13 22 -112 36 -921 45 -3830 46 -1996 0 -2503 -3 -2503 -12 0 -7 7 -85 15
-173 17 -190 19 -370 4 -412 -10 -29 -14 -31 -77 -37 -66 -6 -156 4 -190 23
-22 12 -67 60 -80 86 -18 36 -31 127 -42 290 -7 87 -16 167 -20 176 -26 48
-230 58 -1200 58 -950 1 -1116 -8 -1134 -56 -18 -45 35 -135 139 -236 57 -55
57 -56 51 -100 -6 -40 -4 -47 16 -61 12 -9 34 -16 49 -16 30 0 79 -35 79 -56
0 -27 28 -26 98 5 90 40 134 40 172 3 37 -38 50 -110 27 -158 -34 -71 -164
-69 -196 4 -9 19 -25 35 -39 39 -49 12 -129 -5 -202 -43 -66 -34 -74 -36 -110
-25 -23 7 -72 41 -124 89 -121 107 -221 180 -266 192 -79 21 -120 103 -206
403 -5 16 -77 17 -1325 17 l-1319 0 0 -2079z m10498 1483 c183 -37 301 -101
403 -216 68 -76 134 -115 221 -127 77 -11 136 -39 172 -81 75 -89 -18 -178
-244 -234 -137 -34 -330 -56 -510 -57 -126 -2 -154 1 -210 20 -87 30 -148 71
-214 141 -76 83 -108 155 -114 256 -4 73 -1 88 23 143 34 74 98 135 164 155
62 20 215 19 309 0z m1606 -153 c101 -67 146 -263 88 -378 -46 -89 -154 -153
-259 -153 -52 0 -54 11 -12 68 41 55 21 56 -73 1 -142 -83 -247 -118 -292 -98
-55 25 -71 131 -31 193 19 28 68 51 91 42 15 -6 15 -25 -1 -68 -10 -26 21 -53
63 -53 56 0 75 19 67 66 -5 27 -1 51 13 83 61 137 229 316 297 316 11 0 33 -9
49 -19z m-5259 -115 c337 -53 654 -180 1020 -406 99 -61 222 -134 273 -162
109 -59 224 -158 403 -349 225 -238 300 -334 313 -401 4 -14 26 -56 51 -92 25
-36 65 -96 90 -132 78 -113 74 -157 -6 -78 -67 66 -139 173 -179 270 -40 98
-109 196 -161 231 -31 20 -47 24 -75 20 -31 -5 -35 -4 -28 11 18 41 16 77 -6
97 -25 23 -53 11 -58 -24 -5 -31 -21 -22 -70 40 -24 30 -69 85 -99 122 -52 64
-279 265 -288 255 -3 -2 9 -42 26 -88 53 -147 42 -144 -132 32 -206 210 -269
259 -269 209 0 -34 -20 -35 -63 -2 -65 48 -109 69 -115 53 -9 -29 -55 -71 -89
-83 -55 -18 -171 -7 -221 21 -23 13 -44 32 -47 41 -4 10 -20 30 -37 44 -27 23
-36 25 -82 20 -64 -8 -78 5 -86 79 l-5 51 -110 0 c-127 0 -205 -21 -205 -56 0
-32 41 -44 80 -24 39 20 46 15 30 -24 -28 -67 -148 -149 -235 -158 -70 -8 -80
3 -80 90 0 84 -11 105 -77 138 -63 32 -118 21 -118 -23 0 -24 29 -38 58 -27
14 5 27 7 29 5 8 -8 -55 -93 -118 -160 -32 -35 -56 -65 -53 -68 3 -3 23 -2 45
3 52 12 108 -3 140 -37 42 -46 100 -65 228 -74 238 -18 490 -126 867 -371 178
-115 347 -200 458 -229 92 -24 123 -39 171 -82 71 -62 84 -122 35 -167 -35
-32 -31 -41 19 -41 53 0 82 -23 75 -59 -8 -37 8 -65 44 -80 39 -16 60 -65 68
-158 8 -104 -10 -259 -33 -285 -15 -17 -26 -19 -98 -13 -85 6 -100 2 -119 -36
-11 -22 -20 -25 -110 -31 -136 -10 -191 -37 -243 -119 -73 -116 -79 -124 -93
-124 -8 0 -16 9 -18 20 -6 30 -22 45 -48 45 -40 0 -29 -36 28 -97 58 -61 131
-103 178 -103 72 0 207 104 244 186 34 78 42 88 101 120 56 31 125 45 125 25
0 -9 -82 -102 -206 -231 -150 -159 -158 -188 -151 -546 4 -252 13 -319 43
-331 24 -9 45 20 51 68 8 60 19 79 48 79 24 0 45 -21 88 -90 41 -63 111 -42
107 32 -1 18 -2 49 -3 68 -2 31 1 35 24 38 34 4 59 -26 66 -78 5 -39 3 -43
-46 -88 -45 -42 -51 -52 -51 -88 0 -22 5 -66 11 -98 14 -68 2 -106 -32 -106
-22 0 -86 61 -162 153 -21 26 -45 47 -52 47 -39 0 -150 -186 -184 -308 -27
-97 -51 -147 -104 -217 -75 -100 -182 -168 -305 -194 -29 -6 -99 -11 -156 -11
-121 0 -179 -16 -225 -64 -44 -45 -51 -99 -22 -165 31 -74 28 -108 -19 -169
-42 -56 -56 -102 -47 -155 7 -43 -15 -102 -50 -139 -31 -34 -165 -138 -201
-157 -35 -19 -46 -9 -72 60 -32 90 -101 154 -233 219 -92 45 -137 60 -137 45
0 -11 41 -86 80 -146 35 -55 51 -99 35 -99 -14 0 -76 37 -146 86 -90 63 -143
85 -269 112 -191 41 -702 86 -918 80 -117 -2 -142 -6 -167 -23 -23 -15 -45
-19 -94 -18 -58 2 -66 -1 -90 -26 -62 -66 -95 -238 -111 -571 -22 -477 -64
-571 -124 -282 -15 68 -33 140 -42 160 l-16 37 -16 -32 c-8 -18 -19 -33 -23
-33 -4 0 -20 18 -36 40 -15 22 -32 38 -38 36 -5 -1 -12 -38 -15 -82 l-5 -79
-27 60 c-43 97 -54 193 -68 615 -9 284 -18 343 -51 372 -27 23 -83 7 -129 -38
-41 -39 -74 -44 -91 -13 -15 29 -7 76 35 194 19 55 72 237 116 405 97 363 138
492 197 623 54 122 88 239 108 378 21 152 45 489 45 654 0 175 -5 186 -83 178
-68 -7 -138 24 -242 109 -133 107 -235 254 -285 413 -28 90 -37 256 -20 362
26 167 135 436 218 540 69 86 213 143 362 143 214 0 334 -130 424 -460 32
-117 55 -180 65 -180 4 0 25 38 45 83 42 94 88 157 116 157 25 0 39 21 55 81
19 71 72 146 182 255 236 235 570 455 798 527 70 22 205 48 315 61 83 10 509
-3 605 -18z m51 -446 c23 0 16 -20 -12 -30 -29 -11 -86 0 -91 17 -4 12 49 23
75 16 8 -1 20 -3 28 -3z m743 -209 c28 -18 -22 -71 -68 -71 -16 0 -21 6 -21
28 0 15 5 33 12 40 14 14 57 16 77 3z m-149 -243 c41 -28 55 -50 47 -72 -9
-23 -44 -20 -93 9 -42 25 -62 55 -49 75 11 17 61 11 95 -12z m970 -1018 c0
-28 -84 -113 -107 -108 -34 6 -27 46 15 88 45 45 92 55 92 20z m-96 -266 c15
-39 -3 -112 -25 -99 -10 7 -13 98 -2 108 11 11 20 8 27 -9z m2669 -34 c29 -23
117 -139 142 -189 17 -33 17 -35 -1 -48 -27 -19 -113 -16 -190 8 -52 16 -78
31 -106 61 -61 63 -52 96 47 162 47 31 74 33 108 6z m-2799 -271 c85 -94 214
-302 236 -381 11 -37 -10 -63 -67 -82 -62 -21 -69 -13 -53 63 19 93 -5 168
-95 296 -39 55 -85 136 -85 150 0 16 23 -1 64 -46z m-21 -167 c27 -29 49 -93
51 -145 1 -59 -17 -77 -81 -77 -80 0 -147 53 -141 111 4 49 37 51 75 5 15 -20
31 -36 34 -36 3 0 2 26 -3 57 -12 75 -5 103 26 103 12 0 30 -8 39 -18z m2880
-193 c46 -24 88 -74 102 -123 17 -58 20 -163 4 -203 -37 -98 -127 -95 -186 5
-25 42 -28 56 -28 142 0 108 7 142 35 170 23 23 42 25 73 9z m-2582 -227 c-42
-59 -114 -122 -152 -134 -36 -10 -42 -9 -60 9 -12 11 -21 35 -22 54 l-2 34 55
0 c44 1 67 8 119 37 72 41 91 40 62 0z m1323 -38 c33 -9 82 -27 110 -41 66
-34 180 -128 247 -205 70 -81 144 -134 281 -201 127 -63 216 -127 331 -237
136 -129 211 -235 227 -321 14 -76 85 -218 189 -377 104 -161 134 -219 157
-301 28 -100 8 -159 -115 -327 -44 -60 -49 -89 -17 -109 37 -25 32 -35 -18
-35 -59 0 -74 7 -92 42 -19 37 -46 47 -163 58 -78 7 -108 15 -167 44 -130 65
-238 186 -264 299 -56 237 -318 668 -467 766 -105 70 -290 105 -619 117 l-191
7 -6 -154 c-4 -120 -10 -169 -27 -224 -52 -163 -149 -324 -231 -381 -40 -28
-47 -29 -143 -28 -84 1 -117 7 -196 32 -99 33 -187 80 -247 133 -67 58 -96 59
-170 6 -101 -72 -99 5 10 473 31 129 67 291 82 360 40 196 80 298 122 315 52
19 145 28 403 35 287 8 350 16 350 46 0 66 189 179 365 218 78 17 166 14 259
-10z m-7218 -273 c122 -23 230 -59 349 -116 220 -104 265 -185 265 -476 0
-160 -16 -405 -31 -461 -18 -68 -130 -138 -223 -138 -16 0 -61 16 -100 35 -39
19 -141 53 -226 75 -103 28 -193 60 -271 96 -136 64 -166 67 -317 30 -144 -35
-245 -41 -380 -22 -143 20 -164 14 -172 -54 -4 -39 -8 -45 -31 -48 -14 -2 -48
8 -76 23 -57 28 -78 31 -90 13 -4 -7 -13 -56 -19 -108 -8 -76 -12 -89 -18 -65
-38 150 -48 161 -86 100 -27 -43 -36 -44 -45 -2 -9 42 -22 57 -51 57 -29 0
-54 -35 -54 -78 0 -69 -64 -47 -177 63 -55 54 -74 80 -83 114 -12 46 -12 46
-78 26 -19 -6 -22 -4 -22 17 0 14 16 57 36 97 28 56 44 76 77 95 85 49 155 46
216 -9 48 -43 79 -55 144 -54 69 1 84 8 105 49 12 25 36 44 91 74 97 51 147
102 162 162 20 77 101 173 254 302 175 147 285 203 433 222 99 13 303 4 418
-19z m3050 -1527 c115 -23 234 -68 399 -151 83 -41 154 -79 159 -83 11 -11
-110 -72 -194 -98 -86 -26 -226 -49 -385 -62 -151 -13 -243 -32 -296 -62 -32
-18 -48 -20 -106 -15 -90 7 -213 47 -288 93 -79 48 -112 55 -182 39 -68 -16
-97 -7 -110 32 -31 93 75 218 206 243 29 5 132 10 227 10 204 0 311 13 379 46
59 28 90 29 191 8z m1816 -270 c20 -13 3 -42 -62 -105 -85 -82 -236 -186 -285
-195 -36 -6 -75 -44 -107 -103 -43 -80 -134 -57 -95 24 42 88 271 304 389 368
46 25 60 28 102 22 28 -3 53 -8 58 -11z m-1352 -230 c0 -31 -73 -154 -111
-189 -46 -42 -65 -44 -81 -10 -20 45 33 127 119 184 52 35 73 39 73 15z m30
-354 c16 -8 18 -18 13 -63 -5 -52 -4 -55 34 -93 22 -21 61 -56 87 -78 53 -43
58 -72 16 -93 -30 -15 -89 -17 -125 -3 -21 8 -26 15 -21 30 21 68 22 64 -11
46 -38 -19 -45 -38 -38 -90 6 -34 3 -45 -15 -61 -35 -31 -54 -10 -62 70 -4 37
-11 72 -16 77 -5 5 -24 -2 -46 -17 -77 -52 -96 -58 -137 -45 -35 12 -41 11
-85 -15 -43 -25 -53 -27 -123 -23 -90 6 -157 35 -167 73 -3 14 -22 38 -40 55
-40 35 -133 84 -142 75 -3 -3 -1 -26 6 -50 22 -82 14 -92 -37 -49 -40 33 -56
89 -36 121 21 32 61 50 157 73 196 45 738 87 788 60z m-1596 -162 c31 -32 76
-141 63 -154 -3 -3 -22 -3 -41 0 -72 14 -126 87 -105 143 19 52 40 54 83 11z
m272 -102 c12 -49 -41 -95 -73 -63 -14 14 -13 19 6 51 26 42 58 48 67 12z
m5701 -722 c3 -8 0 -33 -6 -55 -14 -45 -2 -79 29 -79 28 0 50 -39 50 -88 0
-35 -6 -49 -30 -74 -28 -28 -35 -30 -81 -26 -96 10 -142 70 -137 180 4 82 26
116 89 140 56 21 78 22 86 2z m-2807 -157 c0 -28 -42 -111 -55 -109 -21 3 -15
52 11 91 30 46 44 52 44 18z m-195 -230 c7 -35 -8 -87 -25 -87 -6 0 -10 26
-10 60 0 46 3 60 15 60 8 0 17 -14 20 -33z m2505 -567 c37 -26 57 -74 40 -95
-7 -8 -26 -15 -42 -15 -30 0 -30 0 -24 44 6 40 4 46 -20 65 -26 20 -26 21 -4
21 12 0 34 -9 50 -20z"/>
<path d="M7186 9201 c-27 -4 -51 -11 -53 -18 -13 -39 138 -66 174 -30 35 35
-25 58 -121 48z"/>
<path d="M5795 9032 c-91 -39 -139 -82 -91 -82 45 0 166 66 166 91 0 14 -30
10 -75 -9z"/>
<path d="M5355 8865 c-44 -43 -22 -82 41 -72 44 7 64 23 64 51 0 50 -64 63
-105 21z"/>
<path d="M4730 7412 c-57 -18 -100 -63 -100 -104 0 -35 -48 -113 -116 -187
-79 -88 -112 -155 -126 -254 -6 -40 -19 -126 -30 -192 -10 -66 -24 -149 -30
-184 -8 -53 -7 -66 5 -79 14 -14 24 -13 96 2 49 11 94 15 113 11 36 -8 78 -41
78 -62 0 -17 -18 -16 -71 2 -85 30 -87 4 -13 -172 80 -192 79 -208 -13 -271
-75 -52 -107 -86 -99 -108 12 -33 86 -11 258 75 90 45 184 85 209 90 26 4 60
17 76 29 67 48 159 164 233 295 46 82 44 122 -8 189 -22 29 -39 54 -37 56 2 3
19 -5 38 -17 48 -30 61 -27 53 9 -3 17 -9 44 -12 60 -4 18 -1 36 6 45 16 19
25 19 45 -2 19 -19 15 -81 -10 -153 -8 -22 -11 -40 -7 -40 21 0 174 164 210
226 78 131 118 285 88 342 -39 76 -526 369 -666 401 -63 15 -106 13 -170 -7z
m-56 -407 c-1 -13 -244 -139 -244 -127 0 18 83 103 119 122 38 21 127 24 125
5z m112 -106 c20 -17 17 -37 -8 -50 -30 -16 -228 -26 -228 -11 0 14 62 52 113
68 46 15 101 12 123 -7z m258 -290 c20 -24 26 -41 26 -81 0 -70 -32 -101 -121
-117 -117 -20 -149 -14 -149 29 0 33 64 135 109 173 47 39 100 38 135 -4z"/>
<path d="M6575 7340 c-175 -15 -305 -50 -305 -84 0 -26 -83 -86 -195 -140
-131 -63 -171 -95 -184 -144 -6 -20 -9 -100 -8 -177 2 -157 -6 -195 -53 -240
-36 -34 -38 -63 -7 -74 31 -11 61 5 80 42 10 22 16 27 20 17 2 -8 8 -28 13
-45 11 -34 56 -57 76 -37 9 9 5 22 -20 57 -42 60 -41 82 3 101 76 31 152 8
177 -55 6 -14 14 -62 18 -107 10 -101 27 -134 87 -171 205 -126 443 -129 754
-8 159 62 189 69 224 56 50 -18 69 -13 114 25 63 55 86 104 86 193 0 73 0 74
38 107 22 18 36 38 32 43 -3 6 -40 11 -83 12 l-77 0 49 42 c87 74 123 109 101
102 -84 -30 -182 -10 -424 84 -101 40 -203 74 -227 78 -76 10 -103 69 -68 151
21 51 56 85 114 112 78 37 67 45 -74 60 -101 11 -130 11 -261 0z m263 -406
c110 -37 221 -97 298 -162 68 -58 131 -128 123 -137 -3 -2 -59 34 -124 81
-136 98 -212 144 -237 144 -25 0 -23 -8 22 -74 43 -62 50 -96 25 -116 -19 -16
-48 -4 -103 39 -36 29 -79 44 -155 56 -32 5 -41 12 -53 41 -18 42 -9 104 18
133 26 29 91 27 186 -5z m-9 -368 c39 -21 78 -82 91 -143 8 -37 20 -60 41 -77
16 -14 29 -27 29 -30 0 -12 -279 -5 -371 9 -130 19 -205 48 -230 89 -30 49
-45 104 -31 118 9 9 24 -1 65 -44 113 -121 171 -117 281 21 60 75 76 82 125
57z"/>
<path d="M4793 5726 c-56 -26 -99 -127 -74 -175 10 -18 8 -21 -26 -27 -38 -7
-416 2 -535 13 l-68 6 0 -74 c0 -126 29 -675 46 -849 23 -256 48 -380 74 -380
19 0 52 149 70 315 30 270 110 509 225 670 78 109 192 195 258 195 37 0 47 -8
166 -129 140 -143 206 -191 260 -191 41 0 69 14 52 24 -22 14 -11 58 23 90 87
83 372 186 512 186 l58 0 67 -70 c73 -76 93 -84 152 -54 105 55 152 146 113
222 -45 86 -208 162 -347 162 -31 0 -123 -12 -205 -26 -168 -29 -270 -29 -301
-1 -66 59 -445 127 -520 93z"/>
<path d="M3967 5460 c-3 -8 -8 -43 -12 -78 -3 -35 -15 -97 -26 -139 -10 -42
-17 -79 -14 -81 10 -10 55 42 67 77 6 20 11 68 10 106 -2 76 -16 141 -25 115z"/>
<path d="M5434 5200 c-57 -32 -124 -104 -124 -132 0 -21 7 -22 40 -3 32 18 98
18 180 0 177 -39 203 -43 216 -38 40 15 -11 83 -63 83 -38 0 -50 15 -50 59 0
45 -23 61 -92 61 -44 0 -68 -7 -107 -30z"/>
<path d="M8977 6060 c-87 -23 -112 -40 -141 -98 -13 -26 -76 -105 -140 -175
-130 -145 -145 -175 -123 -241 30 -89 117 -198 195 -243 61 -36 75 -21 76 79
0 97 -18 167 -60 225 -41 57 -43 91 -9 123 34 32 131 39 203 16 60 -20 142
-89 142 -119 0 -30 -49 -77 -80 -77 -28 0 -79 33 -168 108 -29 25 -55 43 -58
40 -9 -10 86 -126 146 -178 69 -60 85 -99 94 -235 10 -137 34 -203 70 -189 46
18 86 272 86 544 -1 182 -15 289 -50 363 -38 81 -63 89 -183 57z"/>
<path d="M8505 5200 c-9 -17 -19 -53 -22 -80 -5 -42 -3 -51 12 -56 22 -9 71
42 81 82 17 69 -41 113 -71 54z"/>
<path d="M8771 4926 c-23 -27 29 -86 75 -86 30 0 57 33 49 60 -12 37 -100 55
-124 26z"/>
<path d="M9047 2133 c-30 -34 -38 -88 -67 -423 -53 -600 -88 -724 -397 -1368
-85 -178 -152 -326 -149 -329 13 -13 174 -15 210 -3 55 18 110 90 182 238 190
389 306 717 348 982 41 260 48 758 11 848 -26 65 -102 94 -138 55z"/>
<path d="M3092 1899 c-24 -10 -79 -44 -122 -74 -94 -67 -136 -85 -191 -85 -22
0 -70 -8 -107 -17 -83 -23 -247 -103 -247 -122 0 -8 15 -19 33 -23 51 -13 128
14 208 72 40 30 70 47 72 40 8 -23 -100 -117 -218 -190 -66 -41 -120 -78 -120
-81 0 -3 27 -37 61 -75 118 -133 157 -209 182 -355 24 -137 66 -223 131 -273
21 -15 36 -30 34 -32 -3 -2 -30 4 -61 13 -145 41 -156 -41 -67 -492 22 -110
40 -201 40 -202 0 -2 290 -3 644 -3 l645 0 -78 153 c-43 83 -133 291 -200 462
-142 357 -143 359 -184 403 -27 28 -37 32 -84 32 -64 0 -161 -31 -224 -71 -45
-29 -92 -38 -103 -20 -9 13 48 57 116 92 50 25 63 38 81 77 21 45 22 60 22
332 -1 252 -10 389 -29 407 -2 2 -26 -8 -53 -23 -57 -32 -90 -28 -78 9 20 66
20 67 -21 66 -22 0 -59 -9 -82 -20z m4 -144 c4 -9 -11 -37 -37 -70 -65 -83
-78 -106 -100 -186 -11 -40 -41 -113 -66 -162 -48 -93 -126 -207 -142 -207
-42 0 -12 87 118 339 113 220 168 301 205 301 9 0 19 -7 22 -15z m-46 -904
c-13 -26 -33 -48 -54 -58 -33 -15 -66 -13 -66 5 0 19 47 78 80 100 29 19 36
21 48 9 12 -12 11 -20 -8 -56z"/>
<path d="M3526 1834 c-25 -24 -17 -119 23 -278 67 -263 163 -520 327 -872 185
-399 254 -527 325 -608 56 -63 100 -77 226 -74 l102 3 -139 255 c-273 500
-482 991 -571 1343 -33 133 -65 205 -101 226 -12 8 -57 16 -99 19 -63 4 -78 1
-93 -14z"/>
<path d="M2144 1060 c21 -80 27 -149 36 -374 5 -138 10 -325 10 -416 0 -243
13 -270 125 -270 125 0 129 14 128 420 -1 420 -20 581 -68 588 -13 2 -29 -8
-43 -28 -36 -47 -61 -40 -132 38 -47 50 -61 61 -56 42z"/>
<path d="M11985 1000 c26 -31 345 -296 507 -422 208 -162 280 -197 294 -144 3
14 3 35 -1 48 -30 100 -237 298 -311 298 -23 0 -115 48 -209 109 -99 65 -212
120 -262 128 l-38 6 20 -23z"/>
<path d="M11940 451 c0 -5 37 -31 83 -57 98 -56 253 -159 363 -240 241 -179
414 -198 414 -46 0 40 -35 91 -67 97 -90 19 -204 57 -405 136 -275 108 -388
140 -388 110z"/>
</g>
</svg>
